<?xml version="1.0" encoding="UTF-8"?>
<svg width="782px" height="266px" viewBox="0 0 782 266" xmlns="http://www.w3.org/2000/svg" xmlns:xlink="http://www.w3.org/1999/xlink" version="1.1">
 <!-- Generated by Pixelmator Pro 2.1.2 -->
 <g id="Page-1">
  <g id="2">
   <path id="S-O-P-H-I-S-T-I-C-AT-E-D" d="M70.873 125.347 L70.873 110.226 66.932 110.226 C66.369 110.789 65.726 111.433 64.761 111.433 63.554 111.433 62.348 111.031 61.061 110.628 59.533 110.146 56.879 109.663 54.385 109.663 46.423 109.663 39.908 114.972 39.908 123.497 39.908 131.54 42.803 136.044 50.042 139.101 L56.315 141.674 C58.97 142.8 63.232 144.731 63.232 149.315 63.232 152.533 60.739 155.428 57.361 155.428 51.892 155.428 47.87 152.774 45.86 149.557 44.573 147.546 43.768 145.776 43.366 143.605 L39.345 143.605 39.345 160.897 43.366 160.897 C44.09 159.449 44.975 157.841 46.262 157.841 47.549 157.841 48.996 158.565 50.846 159.449 52.616 160.334 55.35 161.38 58.407 161.38 66.611 161.38 72.884 155.267 72.884 146.179 72.884 136.527 68.219 132.184 57.683 129.047 51.57 127.277 48.675 125.83 48.755 121.245 48.755 118.108 50.846 114.65 55.35 114.65 58.809 114.65 62.75 117.304 64.198 119.154 65.404 120.682 66.369 122.934 66.932 125.347 Z M132.483 127.84 L132.483 142.64 C132.563 152.774 125.968 161.38 115.834 161.38 105.78 161.38 99.024 154.141 99.104 143.203 L99.185 127.84 C99.185 118.35 105.78 109.663 115.834 109.663 125.888 109.663 132.402 117.787 132.483 127.84 Z M110.123 123.819 L110.123 145.213 C110.123 151.085 111.008 156.232 115.834 156.232 120.579 156.232 121.544 150.683 121.544 145.213 L121.544 123.819 C121.544 119.315 120.579 114.891 115.834 114.891 111.008 114.891 110.123 119.315 110.123 123.819 Z M179.776 138.779 L172.215 138.779 172.215 149.476 C172.215 153.176 172.859 155.508 174.869 155.911 L177.443 156.313 177.443 160.897 157.979 160.897 157.979 156.313 160.553 155.911 C162.483 155.508 163.127 153.176 163.127 149.476 L163.127 121.647 C163.127 117.867 162.161 115.535 160.553 115.213 L157.979 114.811 157.979 110.226 180.66 110.226 C190.553 110.226 196.023 114.57 195.942 125.186 195.862 134.597 189.025 138.779 179.776 138.779 Z M172.215 122.05 L172.215 131.058 180.66 131.058 C183.315 131.058 186.13 128.243 186.13 124.382 186.13 119.315 183.315 117.224 180.66 117.224 L176.076 117.224 C173.743 117.224 172.215 118.269 172.215 122.05 Z M233.905 121.647 C233.905 117.867 234.87 115.535 236.559 115.213 L239.053 114.811 239.053 110.226 219.669 110.226 219.669 114.811 222.243 115.213 C223.851 115.535 224.817 117.867 224.817 121.647 L224.817 149.476 C224.817 153.176 224.173 155.508 222.243 155.911 L219.669 156.313 219.669 160.897 239.133 160.897 239.133 156.313 236.559 155.911 C234.549 155.508 233.905 153.176 233.905 149.476 L233.905 138.457 247.096 138.457 247.096 149.476 C247.096 153.176 246.452 155.508 244.361 155.911 L241.868 156.313 241.868 160.897 261.251 160.897 261.251 156.313 258.758 155.911 C256.747 155.508 256.104 153.176 256.104 149.476 L256.104 121.647 C256.104 117.867 257.069 115.535 258.758 115.213 L261.251 114.811 261.251 110.226 241.868 110.226 241.868 114.811 244.361 115.213 C246.13 115.535 247.096 117.867 247.096 121.647 L247.096 131.379 233.905 131.379 Z M290.206 149.476 C290.206 153.176 289.563 155.508 287.632 155.911 L285.059 156.313 285.059 160.897 304.523 160.897 304.523 156.313 301.949 155.911 C299.938 155.508 299.295 153.176 299.295 149.476 L299.295 121.647 C299.295 117.867 300.26 115.535 301.869 115.213 L304.442 114.811 304.442 110.226 285.059 110.226 285.059 114.811 287.632 115.213 C289.241 115.535 290.206 117.867 290.206 121.647 Z M360.422 125.347 L360.422 110.226 356.481 110.226 C355.918 110.789 355.274 111.433 354.309 111.433 353.102 111.433 351.896 111.031 350.609 110.628 349.081 110.146 346.427 109.663 343.933 109.663 335.971 109.663 329.456 114.972 329.456 123.497 329.456 131.54 332.352 136.044 339.59 139.101 L345.864 141.674 C348.518 142.8 352.781 144.731 352.781 149.315 352.781 152.533 350.287 155.428 346.909 155.428 341.44 155.428 337.419 152.774 335.408 149.557 334.121 147.546 333.317 145.776 332.915 143.605 L328.893 143.605 328.893 160.897 332.915 160.897 C333.638 159.449 334.523 157.841 335.81 157.841 337.097 157.841 338.545 158.565 340.395 159.449 342.164 160.334 344.899 161.38 347.955 161.38 356.159 161.38 362.432 155.267 362.432 146.179 362.432 136.527 357.767 132.184 347.231 129.047 341.118 127.277 338.223 125.83 338.303 121.245 338.303 118.108 340.395 114.65 344.899 114.65 348.357 114.65 352.298 117.304 353.746 119.154 354.952 120.682 355.918 122.934 356.481 125.347 Z M385.033 130.414 L389.779 130.414 389.779 125.91 C389.779 121.165 390.985 115.937 394.444 115.937 397.5 115.937 397.822 120.682 397.822 123.739 L397.822 149.476 C397.822 153.176 397.178 155.508 395.167 155.911 L392.594 156.313 392.594 160.897 412.058 160.897 412.058 156.313 409.564 155.911 C407.473 155.508 406.83 153.176 406.83 149.476 L406.83 123.739 C406.83 120.682 407.151 115.937 410.208 115.937 413.666 115.937 414.873 121.165 414.873 125.91 L414.873 130.414 419.618 130.414 419.618 110.226 385.033 110.226 Z M448.734 149.476 C448.734 153.176 448.09 155.508 446.16 155.911 L443.586 156.313 443.586 160.897 463.05 160.897 463.05 156.313 460.477 155.911 C458.466 155.508 457.822 153.176 457.822 149.476 L457.822 121.647 C457.822 117.867 458.788 115.535 460.396 115.213 L462.97 114.811 462.97 110.226 443.586 110.226 443.586 114.811 446.16 115.213 C447.769 115.535 448.734 117.867 448.734 121.647 Z M522.247 133.873 L522.247 109.985 516.778 109.985 C516.778 112.076 516.295 112.559 515.491 112.559 514.526 112.559 512.917 111.915 511.63 111.191 509.539 110.146 507.448 109.663 505.115 109.663 494.981 109.663 488.466 119.476 488.466 127.921 L488.466 141.272 C488.466 151.085 493.292 161.38 506 161.38 517.662 161.38 522.247 152.774 522.247 144.168 L513.963 144.168 C513.963 153.096 511.067 156.232 506.241 156.232 501.496 156.232 499.324 151.567 499.324 145.213 L499.324 123.819 C499.324 119.315 500.29 114.891 505.115 114.891 511.389 114.891 513.963 125.91 513.963 133.873 Z M567.609 144.49 L557.877 144.49 557.234 146.902 C556.028 151.648 557.234 155.106 559.003 155.75 L561.095 156.313 561.095 160.897 544.043 160.897 544.043 156.313 545.813 155.75 C547.824 155.106 549.191 152.693 551.443 144.409 L560.693 110.226 568.172 110.226 577.663 146.983 C579.111 152.613 580.478 154.945 581.846 155.428 L584.098 156.313 584.098 160.897 564.312 160.897 564.312 156.313 566.403 155.75 C568.494 155.106 569.459 153.015 568.172 146.902 Z M559.727 137.331 L566.081 137.331 563.427 125.025 563.105 125.025 Z M587.878 130.414 L592.623 130.414 592.623 125.91 C592.623 121.165 593.83 115.937 597.288 115.937 600.345 115.937 600.666 120.682 600.666 123.739 L600.666 149.476 C600.666 153.176 600.023 155.508 598.012 155.911 L595.438 156.313 595.438 160.897 614.902 160.897 614.902 156.313 612.409 155.911 C610.318 155.508 609.674 153.176 609.674 149.476 L609.674 123.739 C609.674 120.682 609.996 115.937 613.052 115.937 616.511 115.937 617.717 121.165 617.717 125.91 L617.717 130.414 622.463 130.414 622.463 110.226 587.878 110.226 Z M668.63 137.01 L668.63 131.299 660.667 131.299 660.667 120.843 C660.667 117.143 661.874 115.213 665.975 115.213 669.756 115.213 672.973 118.35 672.973 124.382 L672.973 127.76 678.04 127.76 678.04 110.226 646.431 110.226 646.431 114.811 649.005 115.213 C650.613 115.535 651.578 117.867 651.578 121.647 L651.578 149.476 C651.578 153.176 650.935 155.589 649.005 155.911 L646.431 156.313 646.431 160.897 678.04 160.897 678.04 142.72 672.973 142.72 672.973 146.661 C672.973 151.648 671.606 155.75 665.975 155.75 661.874 155.75 660.667 153.417 660.667 150.2 L660.667 137.01 Z M708.282 149.476 L708.282 121.647 C708.282 117.867 707.317 115.535 705.708 115.213 L703.134 114.811 703.134 110.226 725.815 110.226 C735.708 110.226 742.706 117.385 742.706 136.125 742.706 149.878 734.341 160.897 723 160.897 L703.134 160.897 703.134 156.313 705.708 155.911 C707.638 155.508 708.282 153.176 708.282 149.476 Z M725.574 115.937 L720.105 115.937 C717.531 115.937 717.37 118.35 717.37 122.05 L717.37 149.476 C717.37 153.176 718.175 155.106 719.864 155.106 L723.563 155.106 C729.435 155.106 731.848 143.203 731.848 135.32 731.848 119.154 729.033 115.937 725.574 115.937 Z" fill="#ffffff" fill-opacity="1" stroke="none"/>
   <path id="B-E-A-S-T" d="M269.493 218.096 L269.493 190.268 C269.493 186.487 268.528 184.155 266.919 183.833 L264.345 183.431 264.345 178.846 287.026 178.846 C296.919 178.846 302.147 183.994 302.147 192.278 302.147 198.311 299.252 201.93 297.563 203.217 L297.563 203.297 C300.941 206.112 302.469 209.812 302.469 214.316 302.469 224.37 297.161 229.517 289.118 229.517 L264.345 229.517 264.345 224.933 266.919 224.531 C268.849 224.129 269.493 221.796 269.493 218.096 Z M278.581 190.67 L278.581 200.08 285.82 200.08 C290.244 200.08 292.496 197.345 292.496 193.002 292.496 187.935 289.681 184.557 287.026 184.557 L281.316 184.557 C279.627 184.557 278.581 186.729 278.581 190.67 Z M281.316 223.887 L285.82 223.887 C290.163 223.887 292.496 218.74 292.496 214.236 292.496 209.169 289.841 205.63 285.579 205.63 L278.581 205.63 278.581 218.096 C278.581 221.796 279.627 223.887 281.316 223.887 Z M350.084 205.63 L350.084 199.919 342.121 199.919 342.121 189.463 C342.121 185.763 343.328 183.833 347.429 183.833 351.21 183.833 354.427 186.97 354.427 193.002 L354.427 196.38 359.494 196.38 359.494 178.846 327.885 178.846 327.885 183.431 330.459 183.833 C332.067 184.155 333.032 186.487 333.032 190.268 L333.032 218.096 C333.032 221.796 332.389 224.209 330.459 224.531 L327.885 224.933 327.885 229.517 359.494 229.517 359.494 211.34 354.427 211.34 354.427 215.281 C354.427 220.268 353.06 224.37 347.429 224.37 343.328 224.37 342.121 222.037 342.121 218.82 L342.121 205.63 Z M404.454 213.11 L394.722 213.11 394.079 215.523 C392.872 220.268 394.079 223.726 395.848 224.37 L397.94 224.933 397.94 229.517 380.888 229.517 380.888 224.933 382.658 224.37 C384.669 223.726 386.036 221.314 388.288 213.029 L397.537 178.846 405.017 178.846 414.508 215.603 C415.956 221.233 417.323 223.566 418.69 224.048 L420.943 224.933 420.943 229.517 401.157 229.517 401.157 224.933 403.248 224.37 C405.339 223.726 406.304 221.635 405.017 215.523 Z M396.572 205.951 L402.926 205.951 400.272 193.646 399.95 193.646 Z M477.002 193.967 L477.002 178.846 473.061 178.846 C472.498 179.409 471.855 180.053 470.89 180.053 469.683 180.053 468.477 179.651 467.19 179.249 465.662 178.766 463.007 178.283 460.514 178.283 452.552 178.283 446.037 183.592 446.037 192.117 446.037 200.16 448.932 204.665 456.171 207.721 L462.444 210.295 C465.099 211.421 469.361 213.351 469.361 217.935 469.361 221.153 466.868 224.048 463.49 224.048 458.021 224.048 453.999 221.394 451.989 218.177 450.702 216.166 449.897 214.397 449.495 212.225 L445.474 212.225 445.474 229.517 449.495 229.517 C450.219 228.07 451.104 226.461 452.391 226.461 453.678 226.461 455.125 227.185 456.975 228.07 458.745 228.954 461.479 230 464.536 230 472.74 230 479.013 223.887 479.013 214.799 479.013 205.147 474.348 200.804 463.812 197.667 457.699 195.898 454.804 194.45 454.884 189.865 454.884 186.729 456.975 183.27 461.479 183.27 464.938 183.27 468.879 185.924 470.327 187.774 471.533 189.302 472.498 191.554 473.061 193.967 Z M501.614 199.034 L506.359 199.034 506.359 194.53 C506.359 189.785 507.566 184.557 511.024 184.557 514.081 184.557 514.402 189.302 514.402 192.359 L514.402 218.096 C514.402 221.796 513.759 224.129 511.748 224.531 L509.174 224.933 509.174 229.517 528.638 229.517 528.638 224.933 526.145 224.531 C524.054 224.129 523.41 221.796 523.41 218.096 L523.41 192.359 C523.41 189.302 523.732 184.557 526.789 184.557 530.247 184.557 531.453 189.785 531.453 194.53 L531.453 199.034 536.199 199.034 536.199 178.846 501.614 178.846 Z" fill="#ffffff" fill-opacity="1" stroke="none"/>
   <path id="-" d="M307.679 71.552 L317.353 67.599 315.764 63.709 306.09 67.662 Z" fill="#ffffff" fill-opacity="1" stroke="none"/>
   <path id="T" d="M333.55 56.182 L336.74 55.498 336.091 52.47 C335.407 49.28 335.465 45.592 337.79 45.094 339.845 44.654 340.744 47.798 341.185 49.852 L344.892 67.153 C345.425 69.64 345.328 71.301 344.035 71.861 L342.362 72.502 343.023 75.584 356.107 72.78 355.446 69.698 353.712 69.787 C352.249 69.818 351.48 68.343 350.947 65.856 L347.24 48.554 C346.8 46.5 346.332 43.264 348.387 42.823 350.712 42.325 352.276 45.666 352.959 48.856 L353.608 51.883 356.798 51.2 353.89 37.629 330.642 42.611 Z" fill="#ffffff" fill-opacity="1" stroke="none"/>
   <path id="H" d="M388.003 42.139 C388.055 39.541 388.75 37.951 389.916 37.753 L391.635 37.511 391.698 34.36 378.375 34.093 378.312 37.244 380.076 37.556 C381.177 37.799 381.808 39.416 381.756 42.014 L381.374 61.142 C381.323 63.685 380.848 65.279 379.516 65.529 L377.742 65.77 377.678 68.921 391.057 69.189 391.12 66.038 389.356 65.726 C387.98 65.422 387.57 63.81 387.62 61.267 L387.772 53.693 396.838 53.874 396.687 61.448 C396.636 63.991 396.162 65.585 394.719 65.833 L392.999 66.075 392.936 69.226 406.259 69.493 406.322 66.342 404.614 66.031 C403.238 65.727 402.828 64.115 402.878 61.572 L403.261 42.444 C403.313 39.846 404.008 38.256 405.174 38.058 L406.893 37.816 406.956 34.665 393.633 34.398 393.57 37.549 395.278 37.86 C396.49 38.106 397.121 39.722 397.069 42.32 L396.936 49.009 387.869 48.828 Z" fill="#ffffff" fill-opacity="1" stroke="none"/>
   <path id="E" d="M439.994 59.564 L440.854 55.734 435.513 54.535 437.087 47.521 C437.645 45.039 438.745 43.926 441.496 44.544 444.032 45.113 445.717 47.702 444.809 51.748 L444.3 54.014 447.699 54.777 450.34 43.016 429.137 38.256 428.447 41.331 430.112 41.988 C431.143 42.446 431.439 44.156 430.87 46.692 L426.679 65.359 C426.122 67.841 425.327 69.362 423.984 69.287 L422.197 69.17 421.507 72.245 442.709 77.005 445.447 64.812 442.048 64.049 441.454 66.692 C440.703 70.037 439.168 72.583 435.392 71.735 432.64 71.117 432.182 69.371 432.667 67.213 L434.653 58.365 Z" fill="#ffffff" fill-opacity="1" stroke="none"/>
   <path id="--1" d="M464.53 69.73 L474.204 73.683 475.794 69.793 466.119 65.84 Z" fill="#ffffff" fill-opacity="1" stroke="none"/>
  </g>
 </g>
</svg>
